<svg xmlns="http://www.w3.org/2000/svg" width="2433.38" height="494.65" viewBox="0 0 2433.38 494.65"><defs><style>.a{opacity:0.02;isolation:isolate;}.b{fill:#213254;}</style></defs><g class="a" transform="translate(-35.38 -174.37)"><path class="b" d="M2411.964,393.449H155.309v-3.638H2408.326V365.4H75.689V342.139H2465.122V320.518H35.38V316.88H2468.76v28.9H79.356v15.989H2411.964Z" transform="translate(0 275.571)"/><path class="b" d="M675.066,324.042h-5.281v-13.2h-407.7v13.2H256.81V305.56H675.066Z" transform="translate(428.177 253.681)"/><path class="b" d="M345.839,269.684c-10.649,0-22.149-2.934-22.149-9.212s11.5-9.212,22.149-9.212,22.149,2.934,22.149,9.212S356.518,269.684,345.839,269.684Zm0-13.143c-10.8,0-16.429,2.934-16.869,4.019.44.968,6.073,3.843,16.869,3.843s16.165-2.728,16.839-3.931c-.675-1.173-6.307-3.931-16.839-3.931Z" transform="translate(557.503 149.034)"/><path class="b" d="M277.593,408.479c0-1.731-1.555-42.421,12.762-78.623,14.668-36.759,120.017-74.75,124.477-76.276l1.79,4.987c-1.085.381-107.667,38.754-121.338,73.342-13.935,35.2-12.41,76.041-12.41,76.452Z" transform="translate(468.269 153.52)"/><path class="b" d="M294.582,404.65c0-.411-1.027-42.216,8.244-78.242,9.505-36.935,85.752-69.5,88.979-70.878l2.054,4.87c-.763.323-77.039,32.916-85.9,67.328-9.094,35.2-8.126,76.276-8.1,76.8Z" transform="translate(501.152 157.29)"/><path class="b" d="M290.1,405.452c0-.411-1.115-42.656,9.006-79.21s91.531-69.763,94.964-71.142l1.115,2.728c-.851.323-83.376,33.737-93.233,69.206-10,35.967-8.8,77.772-8.8,78.212Z" transform="translate(492.487 156.459)"/><path class="b" d="M476.558,408.556l-5.281-.235c0-.411,1.525-41.336-12.38-76.452-13.7-34.559-120.281-72.932-121.367-73.342l1.789-4.987c4.488,1.614,109.9,39.6,124.476,76.276C478.142,366.135,476.616,406.825,476.558,408.556Z" transform="translate(584.265 153.443)"/><path class="b" d="M433.385,404.572H428.1c0-.411,1-41.512-8.1-76.8-8.8-34.441-85.077-67.005-85.928-67.328l2.054-4.87c3.227,1.379,79.474,33.943,88.979,70.878C434.383,362.444,433.385,404.162,433.385,404.572Z" transform="translate(577.594 157.368)"/><path class="b" d="M441.588,405.316h-2.934c0-.44,1.115-42.245-8.8-78.212-9.886-35.468-92.411-68.883-93.233-69.206l1.085-2.728c3.462,1.379,84.725,34.295,94.964,71.142S441.617,404.906,441.588,405.316Z" transform="translate(582.505 156.594)"/><path class="b" d="M354.312,402.929l-5.281-.235c2.934-60.229-15.666-144.25-15.871-145.1l5.163-1.144C338.558,257.3,357.216,342.026,354.312,402.929Z" transform="translate(575.815 159.07)"/><path class="b" d="M343.838,402.551H340.9c1.731-60.463-9.417-144.719-9.534-145.57l2.934-.381C334.392,257.392,345.569,341.882,343.838,402.551Z" transform="translate(572.354 159.36)"/><path class="b" d="M322.315,402.929c-2.934-60.9,15.813-145.628,16.018-146.479l5.134,1.144c-.176.851-18.746,84.872-15.871,145.1Z" transform="translate(554.242 159.07)"/><path class="b" d="M326.98,402.59c-1.731-60.669,9.446-145.159,9.564-146.01l2.934.381c0,.851-11.265,85.077-9.535,145.57Z" transform="translate(563.513 159.321)"/><path class="b" d="M450.773,341.62h-5.281V315.275H431V301.751H390.75V296.47h45.531v13.524h14.492Z" transform="translate(687.176 236.104)"/><path class="b" d="M707.007,476.862h-5.281V256.16H609.814v-24.35H421.031V476.862H415.75V226.53H615.094v24.35h91.912Z" transform="translate(735.518 100.861)"/><rect class="b" width="254.468" height="5.281" transform="translate(1153.909 512.889)"/><rect class="b" width="5.281" height="37.874" transform="translate(1302.999 515.529)"/><path class="b" d="M580.641,329.65H575.36V307.941H426.27V302.66H580.641Z" transform="translate(755.861 248.073)"/><rect class="b" width="104.087" height="2.934" transform="translate(1153.909 344.788)"/><rect class="b" width="66.8" height="2.934" transform="translate(1281.143 344.788)"/><path class="b" d="M554.969,253.52h-5.281V231.811H482.8V226.53h72.169Z" transform="translate(865.172 100.861)"/><rect class="b" width="53.012" height="2.934" transform="translate(1347.973 340.74)"/><rect class="b" width="178.955" height="11.588" transform="translate(1231.094 318.444)"/><path class="b" d="M475.766,256.687h-5.281V217.581H432.641v39.106H427.36V212.3h48.406Z" transform="translate(757.969 73.345)"/><rect class="b" width="26.99" height="4.929" transform="translate(1169.223 365.383)"/><rect class="b" width="26.99" height="4.929" transform="translate(1169.223 377.117)"/><rect class="b" width="26.99" height="4.929" transform="translate(1169.223 400.558)"/><rect class="b" width="26.99" height="4.929" transform="translate(1169.223 412.292)"/><rect class="b" width="26.99" height="4.929" transform="translate(1169.223 423.998)"/><rect class="b" width="26.99" height="4.929" transform="translate(1207.478 365.383)"/><rect class="b" width="26.99" height="4.929" transform="translate(1207.478 377.117)"/><rect class="b" width="26.99" height="4.929" transform="translate(1207.478 400.558)"/><rect class="b" width="26.99" height="4.929" transform="translate(1207.478 447.467)"/><rect class="b" width="26.99" height="4.929" transform="translate(1207.478 459.173)"/><rect class="b" width="26.99" height="4.929" transform="translate(1207.478 470.908)"/><rect class="b" width="26.99" height="4.929" transform="translate(1207.478 482.613)"/><rect class="b" width="26.99" height="4.929" transform="translate(1207.478 494.348)"/><rect class="b" width="26.99" height="4.929" transform="translate(1245.733 365.383)"/><rect class="b" width="26.99" height="4.929" transform="translate(1245.733 377.117)"/><rect class="b" width="26.99" height="4.929" transform="translate(1245.733 388.823)"/><rect class="b" width="26.99" height="4.929" transform="translate(1245.733 400.558)"/><rect class="b" width="26.99" height="4.929" transform="translate(1245.733 447.467)"/><rect class="b" width="26.99" height="4.929" transform="translate(1245.733 459.173)"/><rect class="b" width="26.99" height="4.929" transform="translate(1283.989 377.117)"/><rect class="b" width="26.99" height="4.929" transform="translate(1283.989 388.823)"/><rect class="b" width="26.99" height="4.929" transform="translate(1283.989 400.558)"/><rect class="b" width="26.99" height="4.929" transform="translate(1283.989 447.467)"/><rect class="b" width="26.99" height="4.929" transform="translate(1283.989 459.173)"/><rect class="b" width="26.99" height="4.929" transform="translate(1322.244 365.383)"/><rect class="b" width="26.99" height="4.929" transform="translate(1322.244 388.823)"/><rect class="b" width="26.99" height="4.929" transform="translate(1322.244 400.558)"/><rect class="b" width="26.99" height="4.929" transform="translate(1322.244 412.292)"/><rect class="b" width="26.99" height="4.929" transform="translate(1322.244 447.467)"/><rect class="b" width="26.99" height="4.929" transform="translate(1322.244 459.173)"/><rect class="b" width="26.99" height="4.929" transform="translate(1322.244 482.613)"/><rect class="b" width="26.99" height="4.929" transform="translate(1322.244 494.348)"/><rect class="b" width="26.99" height="4.929" transform="translate(1360.5 365.383)"/><rect class="b" width="26.99" height="4.929" transform="translate(1360.5 377.117)"/><rect class="b" width="26.99" height="4.929" transform="translate(1360.5 388.823)"/><rect class="b" width="26.99" height="4.929" transform="translate(1360.5 400.558)"/><rect class="b" width="26.99" height="4.929" transform="translate(1360.5 412.292)"/><rect class="b" width="26.99" height="4.929" transform="translate(1360.5 423.998)"/><rect class="b" width="26.99" height="4.929" transform="translate(1360.5 435.733)"/><rect class="b" width="26.99" height="4.929" transform="translate(1360.5 447.467)"/><rect class="b" width="26.99" height="4.929" transform="translate(1360.5 459.173)"/><rect class="b" width="26.99" height="4.929" transform="translate(1360.5 482.613)"/><rect class="b" width="26.99" height="4.929" transform="translate(1360.5 494.348)"/><rect class="b" width="26.99" height="4.929" transform="translate(1398.755 365.383)"/><rect class="b" width="26.99" height="4.929" transform="translate(1398.755 377.117)"/><rect class="b" width="26.99" height="4.929" transform="translate(1398.755 400.558)"/><rect class="b" width="26.99" height="4.929" transform="translate(1398.755 423.998)"/><rect class="b" width="26.99" height="4.929" transform="translate(1398.755 435.733)"/><path class="b" d="M566.614,354.595h-5.281V295.041h-47.2V289.76h52.484Z" transform="translate(925.755 223.129)"/><path class="b" d="M948.758,468.837h-5.281V235.961H580.551V468.837H575.27V230.68H948.758Z" transform="translate(1043.981 108.886)"/><path class="b" d="M535.5,418.5H530.22V224.55H743.089v5.281H535.5Z" transform="translate(956.868 97.033)"/><path class="b" d="M805.956,251.826,782.31,228.151H629.436L607.316,250.3l-3.726-3.755,23.675-23.675H784.481l25.2,25.2Z" transform="translate(1098.743 93.784)"/><rect class="b" width="31.567" height="5.281" transform="translate(1761.169 338.822) rotate(-45)"/><rect class="b" width="5.281" height="32.799" transform="translate(1725.23 321.161) rotate(-45)"/><rect class="b" width="33.415" height="5.281" transform="translate(1845.236 341.08) rotate(-45)"/><path class="b" d="M691.781,259.109l-20.946-45.238H570.648l-20.917,45.238-4.811-2.23,22.355-48.259H674.208l22.355,48.259Z" transform="translate(985.293 66.229)"/><rect class="b" width="8.302" height="17.279" transform="translate(1534.321 348.015)"/><rect class="b" width="8.185" height="88.245" transform="translate(1675.314 370.927)"/><rect class="b" width="8.185" height="88.245" transform="translate(1675.314 479.738)"/><rect class="b" width="8.185" height="88.245" transform="translate(1704.269 370.927)"/><rect class="b" width="8.185" height="88.245" transform="translate(1704.269 479.738)"/><rect class="b" width="8.185" height="88.245" transform="translate(1733.254 370.927)"/><rect class="b" width="8.185" height="88.245" transform="translate(1733.254 479.738)"/><rect class="b" width="8.185" height="88.245" transform="translate(1762.21 370.927)"/><rect class="b" width="8.185" height="88.245" transform="translate(1762.21 479.738)"/><rect class="b" width="8.185" height="88.245" transform="translate(1791.165 370.927)"/><rect class="b" width="8.185" height="88.245" transform="translate(1791.165 479.738)"/><rect class="b" width="8.185" height="88.245" transform="translate(1820.15 370.927)"/><rect class="b" width="8.185" height="88.245" transform="translate(1820.15 479.738)"/><rect class="b" width="8.185" height="88.245" transform="translate(1849.106 370.927)"/><rect class="b" width="8.185" height="88.245" transform="translate(1849.106 479.738)"/><rect class="b" width="8.185" height="88.245" transform="translate(1878.061 370.927)"/><rect class="b" width="8.185" height="88.245" transform="translate(1878.061 479.738)"/><rect class="b" width="8.185" height="88.245" transform="translate(1907.046 370.927)"/><rect class="b" width="8.185" height="88.245" transform="translate(1907.046 479.738)"/><rect class="b" width="8.185" height="88.245" transform="translate(1936.002 370.927)"/><rect class="b" width="8.185" height="88.245" transform="translate(1936.002 479.738)"/><rect class="b" width="8.185" height="88.245" transform="translate(1964.957 370.927)"/><rect class="b" width="8.185" height="88.245" transform="translate(1964.957 479.738)"/><rect class="b" width="8.302" height="17.279" transform="translate(1534.321 383.19)"/><rect class="b" width="8.302" height="17.279" transform="translate(1534.321 418.365)"/><rect class="b" width="8.302" height="17.279" transform="translate(1534.321 453.54)"/><rect class="b" width="8.302" height="17.279" transform="translate(1534.321 488.686)"/><rect class="b" width="8.302" height="17.279" transform="translate(1534.321 523.861)"/><rect class="b" width="10.033" height="10.033" transform="translate(1464.792 533.835)"/><rect class="b" width="10.033" height="10.033" transform="translate(1464.792 555.779)"/><rect class="b" width="8.302" height="17.279" transform="translate(1557.702 348.015)"/><rect class="b" width="8.302" height="17.279" transform="translate(1557.702 383.19)"/><rect class="b" width="8.302" height="17.279" transform="translate(1557.702 418.365)"/><rect class="b" width="8.302" height="17.279" transform="translate(1557.702 453.54)"/><rect class="b" width="8.302" height="17.279" transform="translate(1557.702 488.686)"/><rect class="b" width="8.302" height="17.279" transform="translate(1557.702 523.861)"/><rect class="b" width="8.302" height="17.279" transform="translate(1581.084 348.015)"/><rect class="b" width="8.302" height="17.279" transform="translate(1581.084 383.19)"/><rect class="b" width="8.302" height="17.279" transform="translate(1581.084 418.365)"/><rect class="b" width="8.302" height="17.279" transform="translate(1581.084 453.54)"/><rect class="b" width="8.302" height="17.279" transform="translate(1581.084 488.686)"/><rect class="b" width="8.302" height="17.279" transform="translate(1581.084 523.861)"/><rect class="b" width="8.302" height="8.302" transform="translate(1589.21 300.841)"/><rect class="b" width="8.302" height="8.302" transform="translate(1613.853 300.841)"/><rect class="b" width="8.302" height="8.302" transform="translate(1638.467 300.841)"/><path class="b" d="M796.778,275.978H791.5V221.616H714.4v-7.745H631.171v39.194H625.89V208.62h93.79v7.716h77.1Z" transform="translate(1141.865 66.229)"/><path class="b" d="M770.195,283.869h-5.281V212.581H723.05v14.668H709.907v9.27H683.24v-5.281h21.387v-9.27H717.74V207.3h52.455Z" transform="translate(1252.762 63.676)"/><path class="b" d="M734.716,268.83h-5.31V219.691H711.98V214.41h22.736Z" transform="translate(1308.336 77.425)"/><path class="b" d="M817.3,258.522h-5.281V237.781H707.23V232.5H817.3Z" transform="translate(1299.151 112.406)"/><path class="b" d="M879.144,281.688h-5.281V262.619l-32.769-16.869H707.23V240.47H842.356l36.789,18.952Z" transform="translate(1299.151 127.817)"/><path class="b" d="M989.081,407.228H983.8V258.93H723.23V384.7h-5.31V253.62H989.081Z" transform="translate(1319.822 153.245)"/><path class="b" d="M814.227,339.821h-5.281V323.539H771.865V302.681H708.82V297.4h68.325v20.859h37.082Z" transform="translate(1302.225 237.902)"/><rect class="b" width="169.245" height="5.281" transform="translate(2006.381 386.183)"/><rect class="b" width="49.843" height="5.281" transform="translate(1439.885 400.382)"/><rect class="b" width="29.748" height="5.281" transform="translate(1459.981 417.221)"/><rect class="b" width="29.748" height="5.281" transform="translate(1459.981 442.069)"/><rect class="b" width="29.748" height="5.281" transform="translate(1459.981 466.888)"/><rect class="b" width="29.748" height="5.281" transform="translate(1459.981 491.708)"/><rect class="b" width="44.328" height="24.731" transform="translate(1201.405 528.643)"/><rect class="b" width="13.26" height="12.38" transform="translate(1365.34 541.023)"/><rect class="b" width="13.26" height="12.38" transform="translate(1394.354 541.023)"/><path class="b" d="M890.932,360.309h-5.281V250.237H875.178v-59H767.1V347.9H761.82V185.96H880.458v59h10.473Z" transform="translate(1404.711 22.412)"/><path class="b" d="M777.891,330.247H772.61V192.54h32.916v5.281H777.891Z" transform="translate(1425.576 35.135)"/><rect class="b" width="5.281" height="154.107" transform="translate(2228.168 211.012)"/><path class="b" d="M840.32,247.712h-5.281V196.637H815.383V179.651H795.816V194.7H777.891v16.311H772.61V189.42h17.925V174.37h30.129v16.986H840.32Z" transform="translate(1425.576)"/><path class="b" d="M826.278,268.8H793.89V207.4h5.281v56.122h27.107Z" transform="translate(1466.725 63.87)"/><rect class="b" width="5.281" height="35.175" transform="translate(2260.615 347.546)"/><path class="b" d="M925.889,337.882h-5.281v-72.4h-22.3L882.734,249.9H806.458l-11.852,11.852H770.99v-5.281h21.416l11.882-11.852h80.618L900.513,260.2h25.376Z" transform="translate(1422.443 135.842)"/><path class="b" d="M881.042,382.15h-5.281V345.009H859.539V280.791H816.56V275.51h48.259v64.218h16.223Z" transform="translate(1510.561 195.574)"/><path class="b" d="M898.881,361.227H893.6V291.611H869.515l-12.351,12.38H832.11V298.71h22.854l12.38-12.38h31.537Z" transform="translate(1540.63 216.496)"/><path class="b" d="M879.816,339.821h-5.281V302.681H853.97V297.4h25.846Z" transform="translate(1582.901 237.902)"/><rect class="b" width="5.281" height="150.968" transform="translate(2153.682 409.505)"/><rect class="b" width="5.281" height="150.968" transform="translate(2166.531 409.505)"/><rect class="b" width="5.281" height="150.968" transform="translate(2211.417 409.505)"/><rect class="b" width="5.281" height="150.968" transform="translate(2224.266 409.505)"/><rect class="b" width="5.281" height="150.968" transform="translate(2271.176 409.505)"/><rect class="b" width="5.281" height="116.204" transform="translate(2088.172 409.505)"/><rect class="b" width="2.934" height="27.166" transform="translate(2106.185 421.358)"/><rect class="b" width="2.934" height="27.166" transform="translate(2122.115 421.358)"/><rect class="b" width="2.934" height="27.166" transform="translate(2138.045 421.358)"/><rect class="b" width="2.934" height="27.166" transform="translate(2106.185 464.013)"/><rect class="b" width="2.934" height="27.166" transform="translate(2122.115 464.013)"/><rect class="b" width="2.934" height="27.166" transform="translate(2138.045 464.013)"/><rect class="b" width="2.934" height="27.166" transform="translate(2106.185 506.64)"/><rect class="b" width="2.934" height="27.166" transform="translate(2122.115 506.64)"/><rect class="b" width="2.934" height="27.166" transform="translate(2138.045 506.64)"/><rect class="b" width="2.934" height="27.166" transform="translate(2186.363 421.358)"/><rect class="b" width="2.934" height="27.166" transform="translate(2196.602 421.358)"/><rect class="b" width="2.934" height="27.166" transform="translate(2186.363 464.013)"/><rect class="b" width="2.934" height="27.166" transform="translate(2196.602 464.013)"/><rect class="b" width="2.934" height="27.166" transform="translate(2186.363 506.64)"/><rect class="b" width="2.934" height="27.166" transform="translate(2196.602 506.64)"/><rect class="b" width="2.934" height="27.166" transform="translate(2239.698 421.358)"/><rect class="b" width="2.934" height="27.166" transform="translate(2249.936 421.358)"/><rect class="b" width="2.934" height="27.166" transform="translate(2239.698 464.013)"/><rect class="b" width="2.934" height="27.166" transform="translate(2249.936 464.013)"/><rect class="b" width="2.934" height="27.166" transform="translate(2239.698 506.64)"/><rect class="b" width="2.934" height="27.166" transform="translate(2249.936 506.64)"/><rect class="b" width="2.934" height="27.166" transform="translate(2283.938 421.358)"/><rect class="b" width="2.934" height="27.166" transform="translate(2283.938 464.013)"/><rect class="b" width="2.934" height="27.166" transform="translate(2283.938 506.64)"/><path class="b" d="M868.752,329.9h-5.31v-14.61H820.551v-7.481H809.814v7.481H749.38v-5.281h55.153V302.53h21.328v7.481h42.891Z" transform="translate(1380.656 247.822)"/><path class="b" d="M871.376,324.97H866.1v-14.61H793.78V305.08h77.6Z" transform="translate(1466.512 252.753)"/><rect class="b" width="5.281" height="19.89" transform="translate(2012.248 557.833)"/><rect class="b" width="5.281" height="19.89" transform="translate(2027.709 557.833)"/><rect class="b" width="5.281" height="19.89" transform="translate(2043.17 557.833)"/><rect class="b" width="9.27" height="5.281" transform="translate(2011.016 404.225)"/><rect class="b" width="9.27" height="5.281" transform="translate(2222.242 245.072)"/><rect class="b" width="4.635" height="5.281" transform="translate(2182.08 233.161)"/><rect class="b" width="4.635" height="5.281" transform="translate(2182.08 247.712)"/><rect class="b" width="4.635" height="5.281" transform="translate(2182.08 262.293)"/><rect class="b" width="4.635" height="5.281" transform="translate(2182.08 276.844)"/><rect class="b" width="4.635" height="5.281" transform="translate(2182.08 291.424)"/><rect class="b" width="4.635" height="5.281" transform="translate(2182.08 306.005)"/><rect class="b" width="4.635" height="5.281" transform="translate(2182.08 320.556)"/><rect class="b" width="4.635" height="5.281" transform="translate(2182.08 335.136)"/><rect class="b" width="4.635" height="5.281" transform="translate(2182.08 349.687)"/><rect class="b" width="4.635" height="5.281" transform="translate(2244.421 233.161)"/><rect class="b" width="4.635" height="5.281" transform="translate(2244.421 247.712)"/><rect class="b" width="4.635" height="5.281" transform="translate(2244.421 262.293)"/><rect class="b" width="4.635" height="5.281" transform="translate(2244.421 276.844)"/><rect class="b" width="4.635" height="5.281" transform="translate(2244.421 291.424)"/><rect class="b" width="4.635" height="5.281" transform="translate(2244.421 306.005)"/><rect class="b" width="4.635" height="5.281" transform="translate(2244.421 320.556)"/><rect class="b" width="4.635" height="5.281" transform="translate(2244.421 335.136)"/><rect class="b" width="4.635" height="5.281" transform="translate(2244.421 349.687)"/><rect class="b" width="9.27" height="5.281" transform="translate(2222.242 264.728)"/><rect class="b" width="9.27" height="5.281" transform="translate(2222.242 284.383)"/><rect class="b" width="9.27" height="5.281" transform="translate(2222.242 304.039)"/><rect class="b" width="9.27" height="5.281" transform="translate(2222.242 349.687)"/><rect class="b" width="13.231" height="5.281" transform="translate(2200.826 264.728)"/><rect class="b" width="13.231" height="5.281" transform="translate(2200.826 284.383)"/><rect class="b" width="13.231" height="5.281" transform="translate(2200.826 304.039)"/><rect class="b" width="9.27" height="5.281" transform="translate(2011.016 425.758)"/><rect class="b" width="9.27" height="5.281" transform="translate(2011.016 447.291)"/><rect class="b" width="9.27" height="5.281" transform="translate(2011.016 468.825)"/><rect class="b" width="9.27" height="5.281" transform="translate(2011.016 490.358)"/><rect class="b" width="9.27" height="5.281" transform="translate(2011.016 511.921)"/><rect class="b" width="5.603" height="10.972" transform="translate(2332.607 486.779)"/><rect class="b" width="5.603" height="10.972" transform="translate(2332.607 511.363)"/><rect class="b" width="5.603" height="10.972" transform="translate(2332.607 535.918)"/><rect class="b" width="5.603" height="10.972" transform="translate(2351.178 503.736)"/><rect class="b" width="5.603" height="10.972" transform="translate(2351.178 528.32)"/><rect class="b" width="5.603" height="10.972" transform="translate(2351.178 552.904)"/><rect class="b" width="5.603" height="10.972" transform="translate(2416.1 528.32)"/><rect class="b" width="5.603" height="10.972" transform="translate(2416.1 552.904)"/><path class="b" d="M753.741,263.852H748.49V220.14h41.746v5.281H753.741Z" transform="translate(1378.935 88.505)"/><path class="b" d="M373.872,319.191H144.78v-5.281H368.591V298.45H518.855v5.281H373.872Z" transform="translate(211.546 239.933)"/><rect class="b" width="5.281" height="21.269" transform="translate(373.781 556.483)"/><rect class="b" width="5.281" height="21.269" transform="translate(414.736 556.483)"/><rect class="b" width="5.281" height="21.269" transform="translate(455.69 556.483)"/><rect class="b" width="5.281" height="21.269" transform="translate(496.644 556.483)"/><rect class="b" width="5.281" height="21.269" transform="translate(537.628 556.483)"/><rect class="b" width="5.281" height="36.7" transform="translate(608.213 541.023)"/><rect class="b" width="5.281" height="36.7" transform="translate(646.585 541.023)"/><path class="b" d="M218.711,465.689H213.43V220.755h27.811V209.93h160.62V404.61H396.58v-189.4H246.522v10.825H218.711Z" transform="translate(344.294 68.762)"/><path class="b" d="M558.57,383.448H553.29V231.512H425.733V206.781H334.2v35.556H276.76v-5.281h52.161V201.5H431.013v24.731H558.57Z" transform="translate(466.755 52.461)"/><rect class="b" width="5.281" height="124.154" transform="translate(968.499 281.332)"/><path class="b" d="M456.612,416.766h-5.281V238.573h-14.7V222.321H372.18V217.04h69.734v16.253h14.7Z" transform="translate(651.268 82.511)"/><path class="b" d="M518.771,259.763H513.49V205.226h-62.6V194.4h-17.9v11.588H402.861v53.775H397.58V200.708h30.129V189.12h28.457v10.825h62.605Z" transform="translate(700.383 28.522)"/><rect class="b" width="5.281" height="39.282" transform="translate(1189.142 231.108)"/><rect class="b" width="2.934" height="8.742" transform="translate(1135.309 247.771)"/><rect class="b" width="2.934" height="8.742" transform="translate(1135.309 267.427)"/><rect class="b" width="2.934" height="8.742" transform="translate(1135.309 287.082)"/><rect class="b" width="2.934" height="8.742" transform="translate(1135.309 306.738)"/><rect class="b" width="2.934" height="8.742" transform="translate(1155.405 247.771)"/><rect class="b" width="2.934" height="8.742" transform="translate(1155.405 267.427)"/><rect class="b" width="2.934" height="8.742" transform="translate(1155.405 287.082)"/><rect class="b" width="2.934" height="8.742" transform="translate(1155.405 306.738)"/><rect class="b" width="48.699" height="5.281" transform="translate(1105.239 354.029)"/><rect class="b" width="31.567" height="5.281" transform="translate(1105.239 335.694)"/><rect class="b" width="5.281" height="13.172" transform="translate(1120.875 377.117)"/><rect class="b" width="5.281" height="13.172" transform="translate(1132.669 377.117)"/><rect class="b" width="5.281" height="13.172" transform="translate(1120.875 412.791)"/><rect class="b" width="5.281" height="13.172" transform="translate(1132.669 412.791)"/><rect class="b" width="5.281" height="13.172" transform="translate(1120.875 448.494)"/><rect class="b" width="5.281" height="13.172" transform="translate(1132.669 448.494)"/><rect class="b" width="5.281" height="13.172" transform="translate(1120.875 484.168)"/><rect class="b" width="5.281" height="13.172" transform="translate(1132.669 484.168)"/><rect class="b" width="67.123" height="5.281" transform="translate(1069.682 512.889)"/><path class="b" d="M455.759,252.81h-5.281V205.226H365.2V194.4H344.191v10.825h-25.64v22.853H313.27V199.945h25.641V189.12h31.566v10.825h85.282Z" transform="translate(537.354 28.522)"/><rect class="b" width="55.711" height="8.684" transform="translate(919.683 243.458)"/><rect class="b" width="55.711" height="8.684" transform="translate(919.683 259.447)"/><rect class="b" width="71.875" height="10.444" transform="translate(577.35 324.223)"/><rect class="b" width="71.875" height="10.444" transform="translate(763.698 327.89)"/><rect class="b" width="71.875" height="10.444" transform="translate(763.698 356.67)"/><rect class="b" width="71.875" height="10.444" transform="translate(876.763 327.89)"/><rect class="b" width="71.875" height="10.444" transform="translate(876.763 301.516)"/><rect class="b" width="71.875" height="10.444" transform="translate(876.763 356.67)"/><rect class="b" width="35.204" height="10.444" transform="translate(971.14 327.89)"/><rect class="b" width="35.204" height="10.444" transform="translate(971.14 356.67)"/><rect class="b" width="31.567" height="10.444" transform="translate(1046.36 327.89)"/><rect class="b" width="31.567" height="10.444" transform="translate(1046.36 356.67)"/><rect class="b" width="31.567" height="10.444" transform="translate(1046.36 385.068)"/><rect class="b" width="31.567" height="10.444" transform="translate(1046.36 413.437)"/><rect class="b" width="31.567" height="10.444" transform="translate(1046.36 441.835)"/><rect class="b" width="71.875" height="10.444" transform="translate(763.698 385.449)"/><rect class="b" width="31.038" height="10.444" transform="translate(763.698 414.229)"/><rect class="b" width="71.875" height="10.444" transform="translate(577.35 351.448)"/><rect class="b" width="71.875" height="10.444" transform="translate(577.35 459.848)"/><rect class="b" width="19.714" height="6.63" transform="translate(370.408 419.333)"/><rect class="b" width="19.714" height="6.63" transform="translate(398.835 419.333)"/><rect class="b" width="13.7" height="6.63" transform="translate(498.757 380.579)"/><rect class="b" width="13.7" height="6.63" transform="translate(498.757 393.634)"/><rect class="b" width="13.7" height="6.63" transform="translate(498.757 406.718)"/><rect class="b" width="13.7" height="6.63" transform="translate(476.725 467.534)"/><rect class="b" width="13.7" height="6.63" transform="translate(476.725 480.589)"/><rect class="b" width="13.7" height="6.63" transform="translate(476.725 493.673)"/><rect class="b" width="13.7" height="6.63" transform="translate(498.757 510.806)"/><rect class="b" width="13.7" height="6.63" transform="translate(498.757 523.89)"/><rect class="b" width="5.457" height="6.63" transform="translate(409.396 487.659)"/><rect class="b" width="5.457" height="6.63" transform="translate(409.396 502.386)"/><rect class="b" width="5.457" height="6.63" transform="translate(409.396 517.143)"/><rect class="b" width="5.457" height="6.63" transform="translate(409.396 531.87)"/><rect class="b" width="5.457" height="6.63" transform="translate(352.043 472.081)"/><rect class="b" width="19.949" height="6.63" transform="translate(118.609 507.491)"/><rect class="b" width="19.949" height="6.63" transform="translate(162.673 507.491)"/><rect class="b" width="19.949" height="6.63" transform="translate(206.737 507.491)"/><rect class="b" width="19.949" height="6.63" transform="translate(250.772 507.491)"/><rect class="b" width="19.949" height="6.63" transform="translate(118.609 545.423)"/><rect class="b" width="19.949" height="6.63" transform="translate(162.673 545.423)"/><rect class="b" width="19.949" height="6.63" transform="translate(206.737 545.423)"/><rect class="b" width="19.949" height="6.63" transform="translate(250.772 545.423)"/><rect class="b" width="5.457" height="6.63" transform="translate(352.043 486.838)"/><rect class="b" width="5.457" height="6.63" transform="translate(352.043 501.565)"/><rect class="b" width="5.457" height="6.63" transform="translate(352.043 516.292)"/><rect class="b" width="5.457" height="6.63" transform="translate(423.977 487.659)"/><rect class="b" width="5.457" height="6.63" transform="translate(423.977 502.386)"/><rect class="b" width="5.457" height="6.63" transform="translate(423.977 517.143)"/><rect class="b" width="5.457" height="6.63" transform="translate(423.977 531.87)"/><rect class="b" width="71.875" height="10.444" transform="translate(577.35 487.072)"/><rect class="b" width="15.842" height="10.444" transform="translate(712.212 459.848)"/><rect class="b" width="15.842" height="10.444" transform="translate(712.212 487.072)"/><rect class="b" width="38.373" height="10.444" transform="translate(610.853 378.672)"/><rect class="b" width="38.373" height="10.444" transform="translate(610.853 405.926)"/><rect class="b" width="10.444" height="10.444" transform="translate(674.749 324.223)"/><rect class="b" width="28.486" height="10.444" transform="translate(699.597 324.223)"/><rect class="b" width="53.335" height="10.444" transform="translate(674.749 351.448)"/><rect class="b" width="28.486" height="10.444" transform="translate(699.597 378.672)"/><rect class="b" width="15.842" height="10.444" transform="translate(712.212 405.926)"/><rect class="b" width="15.842" height="10.444" transform="translate(712.212 432.623)"/><rect class="b" width="5.222" height="10.444" transform="translate(674.749 459.848)"/><rect class="b" width="5.222" height="10.444" transform="translate(674.749 487.072)"/><rect class="b" width="5.222" height="10.444" transform="translate(674.749 405.926)"/><rect class="b" width="5.222" height="10.444" transform="translate(615.694 296.998)"/><rect class="b" width="5.222" height="10.444" transform="translate(636.552 296.998)"/><rect class="b" width="5.222" height="10.444" transform="translate(685.017 296.998)"/><rect class="b" width="5.222" height="10.444" transform="translate(825.453 270.947)"/><rect class="b" width="5.222" height="10.444" transform="translate(839.358 270.947)"/><rect class="b" width="5.222" height="10.444" transform="translate(866.906 270.947)"/><rect class="b" width="5.222" height="10.444" transform="translate(698.805 296.998)"/><rect class="b" width="5.222" height="10.444" transform="translate(712.564 296.998)"/><rect class="b" width="5.222" height="10.444" transform="translate(674.749 432.623)"/><rect class="b" width="4.782" height="9.623" transform="translate(577.35 431.596)"/><rect class="b" width="4.782" height="9.623" transform="translate(594.131 431.596)"/><rect class="b" width="4.782" height="9.623" transform="translate(610.912 431.596)"/><rect class="b" width="4.782" height="9.623" transform="translate(627.663 431.596)"/><rect class="b" width="4.782" height="9.623" transform="translate(644.444 431.596)"/><rect class="b" width="5.281" height="118.55" transform="translate(86.25 459.173)"/><path class="b" d="M325.6,391.3h-5.281V276.061H42.7V391.3H37.45V270.78H325.6Z" transform="translate(4.003 186.427)"/><path class="b" d="M202.972,354.862h-5.281v-72.11H171.435V269.521H129.63V264.24h47.086v13.231h26.257Z" transform="translate(182.25 173.781)"/><path class="b" d="M218.975,378.487h-5.281V271.7H196.973v23.235H153.73v-5.281h37.933V266.42h27.313Z" transform="translate(228.852 177.996)"/><path class="b" d="M265.258,386.653h-5.281V262.7H224.363l-.528-.264c-31.977-14.668-55.74-.293-56.063,0l-.645.411H143.481v30.51H138.2V257.57h27.43c4.371-2.464,28.251-14.287,59.847,0h39.752Z" transform="translate(198.822 147.828)"/><path class="b" d="M249.317,352.588h-5.281V306.47H233.592V273.7H180.61V268.42h58.263v32.769h10.444Z" transform="translate(280.83 181.864)"/><path class="b" d="M198.821,288.27H193.54V259.52h60.991v5.31H198.821Z" transform="translate(305.833 164.654)"/><path class="b" d="M261.77,301.54h-5.281v-57.09H179.451v38.138H174.17V239.17h87.6Z" transform="translate(268.377 125.303)"/><path class="b" d="M96.071,346.379H90.79v-100.6h23.763V233.05H135.5v7.51h9.769v-7.51h26.169v7.51H200.98v5.222h21.475V254.5h35.938v39.928h-5.281V259.776H217.173v-8.713H195.728v-5.222H166.157v-7.51H150.579v7.51h-20.36v-7.51H119.834v12.732H96.071Z" transform="translate(107.146 113.469)"/><path class="b" d="M210.8,263.695h-5.281V248.7H165.533v-9.593H147.051v16.517H141.77v-21.8h29.044v9.593H210.8Z" transform="translate(205.725 114.977)"/><rect class="b" width="45.208" height="5.281" transform="translate(386.074 376.032)"/><rect class="b" width="5.281" height="44.093" transform="translate(298.796 378.672)"/><rect class="b" width="5.281" height="6.395" transform="translate(221.699 378.672)"/><rect class="b" width="5.281" height="6.395" transform="translate(221.699 396.627)"/><rect class="b" width="5.281" height="6.395" transform="translate(221.699 414.581)"/><rect class="b" width="5.281" height="6.395" transform="translate(221.699 432.535)"/><rect class="b" width="5.281" height="6.395" transform="translate(235.047 378.672)"/><rect class="b" width="5.281" height="6.395" transform="translate(248.953 378.672)"/><rect class="b" width="5.281" height="6.395" transform="translate(262.272 378.672)"/><rect class="b" width="5.281" height="6.395" transform="translate(235.047 396.627)"/><rect class="b" width="5.281" height="6.395" transform="translate(235.047 414.581)"/><rect class="b" width="5.281" height="6.395" transform="translate(235.047 432.535)"/><rect class="b" width="5.281" height="6.395" transform="translate(283.746 378.672)"/><rect class="b" width="5.281" height="6.395" transform="translate(283.746 396.627)"/><rect class="b" width="5.281" height="6.395" transform="translate(283.746 414.581)"/><rect class="b" width="5.281" height="44.093" transform="translate(314.961 378.672)"/></g></svg>