<svg xmlns="http://www.w3.org/2000/svg" width="153.278" height="26" viewBox="0 0 153.278 26">
  <g id="Group_242" data-name="Group 242" transform="translate(-36.722 -58)">
    <text id="SOCSERVICE" transform="translate(69 79)" fill="#fff" font-size="20" font-family="Cera-Black, Cera ☞" font-weight="800"><tspan x="0" y="0">SOC</tspan><tspan y="0" font-family="CeraCY-Medium, CeraCY ☞" font-weight="500">SERVICE</tspan></text>
    <path id="Path_757" data-name="Path 757" d="M105.471,49.415a15.513,15.513,0,0,0-4.558-11L97,42.335a10.005,10.005,0,0,1,0,14.153l3.928,3.928A15.513,15.513,0,0,0,105.471,49.415Z" transform="translate(-43.193 21.313)" fill="#fff"/>
    <path id="Path_758" data-name="Path 758" d="M47.842,56.312a4.451,4.451,0,1,1,3.145-7.6l3.945-3.934a10.008,10.008,0,1,0,0,14.153l-3.945-3.928A4.436,4.436,0,0,1,47.842,56.312Z" transform="translate(-1.126 18.866)" fill="#fff"/>
  </g>
</svg>
