<svg xmlns="http://www.w3.org/2000/svg" xmlns:xlink="http://www.w3.org/1999/xlink" width="226.592" height="115.449" viewBox="0 0 226.592 115.449"><defs><style>.a{opacity:0.5;}.b,.f{mix-blend-mode:multiply;isolation:isolate;}.b{fill:url(#a);}.c{fill:#e33c5c;}.d{fill:#ff5a72;}.e{fill:#ffaf6d;}.f{fill:url(#b);}.g{fill:#00d6dc;}.h{fill:#009aaa;}.i{fill:#f1f1f6;}.j{fill:#ccdef6;}</style><linearGradient id="a" y1="0.5" x2="1" y2="0.5" gradientUnits="objectBoundingBox"><stop offset="0" stop-color="#cfd5f1"/><stop offset="0.283" stop-color="#e0e4f6"/><stop offset="0.719" stop-color="#f6f7fc"/><stop offset="1" stop-color="#fff"/></linearGradient><linearGradient id="b" y1="0.5" x2="1" y2="0.5" gradientUnits="objectBoundingBox"><stop offset="0" stop-color="#c4c9e4"/><stop offset="0.254" stop-color="#cdd1e8"/><stop offset="0.677" stop-color="#e7e9f4"/><stop offset="1" stop-color="#fff"/></linearGradient></defs><g transform="translate(-1368.787 -717.896)"><g class="a" transform="translate(1462.167 717.896)"><path class="b" d="M1924.893,1281.492h-58.7l37.259,21.517-37.259,21.509h58.7l37.254-21.509Z" transform="translate(-1828.935 -1237.823)"/><path class="c" d="M1866.194,1304.112l37.259-21.509v-43.68l-37.259,21.5Z" transform="translate(-1828.935 -1217.418)"/><path class="d" d="M1831.89,1304.112,1794.63,1282.6v-43.68l37.259,21.5Z" transform="translate(-1794.63 -1217.418)"/><path class="e" d="M1831.89,1240.625l-37.259-21.5,37.259-21.506,37.259,21.506Z" transform="translate(-1794.63 -1197.617)"/></g><g class="a" transform="translate(1368.787 766.247)"><path class="f" d="M1669.245,1323.131l-78.2-45.147a7.318,7.318,0,0,0-6.6,0l-21.628,12.487c-1.815,1.047-1.814,2.761,0,3.81l74.337,42.918v3.009h6.983v0a6.83,6.83,0,0,0,3.475-.776l21.63-12.488C1671.061,1325.893,1671.06,1324.179,1669.245,1323.131Z" transform="translate(-1554.48 -1273.116)"/><path class="g" d="M1577.639,1270.142a7.316,7.316,0,0,0-6.6,0l-21.628,12.487c-1.814,1.048-1.814,2.761,0,3.81l24.337,14.05,28.227-16.3Z" transform="translate(-1548.052 -1269.356)"/><path class="h" d="M1583.516,1293.78c-.349-.986.187-2.1,1.6-2.913a8.232,8.232,0,0,1,7.435-.2c1.957,1.13,1.8,3.055-.343,4.293a8.5,8.5,0,0,1-5.041.922c1.988,2.314,1.313,4.906-.8,6.122-.508-.3-6.727-3.886-6.727-3.886l-6.732-3.885C1575.018,1293.021,1579.51,1292.631,1583.516,1293.78Z" transform="translate(-1559.969 -1279.193)"/><path class="i" d="M1679.494,1328.948l-53.859-31.1-28.227,16.3,53.86,31.1a7.32,7.32,0,0,0,6.6,0l21.63-12.488C1681.31,1331.709,1681.309,1329.995,1679.494,1328.948Z" transform="translate(-1571.71 -1283.016)"/><path class="h" d="M1549.413,1300.436a2.328,2.328,0,0,1-1.358-1.88v3.985h0a2.268,2.268,0,0,0,1.355,1.979l24.335,14.05v-4.084Z" transform="translate(-1548.053 -1283.353)"/><path class="j" d="M1679.5,1347.761l-21.63,12.488a7.321,7.321,0,0,1-6.6,0l-53.86-31.1v4.084l53.861,31.1a7.318,7.318,0,0,0,6.6,0l21.628-12.487a2.253,2.253,0,0,0,1.353-2v-3.893A2.361,2.361,0,0,1,1679.5,1347.761Z" transform="translate(-1571.71 -1298.02)"/><path class="j" d="M1636.533,1313.194l43.021,24.838,2.987-1.724-43.021-24.838Z" transform="translate(-1590.466 -1289.543)"/><path class="j" d="M1621.7,1321.756l16.675,9.627,2.987-1.725-16.674-9.627Z" transform="translate(-1583.356 -1293.648)"/><path class="j" d="M1660.062,1343.9l4.187,2.417,2.987-1.724-4.186-2.417Z" transform="translate(-1601.744 -1304.264)"/></g></g></svg>