<svg xmlns="http://www.w3.org/2000/svg" xmlns:xlink="http://www.w3.org/1999/xlink" width="146.687" height="141.564" viewBox="0 0 146.687 141.564"><defs><style>.a{fill:url(#a);}.b{fill:#f6f7fb;}.c{fill:#00449f;}.d{fill:url(#b);}.e{fill:#ccdef6;}.f{fill:#c6b4bb;}.g{fill:#b9cbe4;}.h{fill:#d8def3;}.i{fill:url(#c);}.j{fill:#d7e6fd;}.k{fill:#fff;}.l{fill:#e8ecf7;}.m{fill:#ff826a;}.n{fill:#dae5f5;}.o,.q{fill:none;stroke-miterlimit:10;stroke-width:0.5px;}.o{stroke:#4e81e7;}.p{fill:#4e81e7;}.q{stroke:#ccdef6;}.r{fill:#ff5a72;}.s{fill:#7ab0f8;}</style><linearGradient id="a" y1="0.5" x2="1" y2="0.5" gradientUnits="objectBoundingBox"><stop offset="0" stop-color="#c2c8e6"/><stop offset="0.633" stop-color="#eceef7"/><stop offset="1" stop-color="#fff"/></linearGradient><linearGradient id="b" y1="0.5" x2="1" y2="0.5" gradientUnits="objectBoundingBox"><stop offset="0" stop-color="#dae0f5"/><stop offset="0.319" stop-color="#e0e5f7"/><stop offset="0.765" stop-color="#f3f5fc"/><stop offset="1" stop-color="#fff"/></linearGradient><linearGradient id="c" x1="0.5" x2="0.5" y2="1" gradientUnits="objectBoundingBox"><stop offset="0" stop-color="#046af3"/><stop offset="0.388" stop-color="#046af3"/><stop offset="0.495" stop-color="#00449f"/><stop offset="1" stop-color="#02357a"/></linearGradient></defs><g transform="translate(-639.318 -700.723)"><g transform="translate(681.476 783.503)"><path class="a" d="M1954.336,727.271h61.843V678.73l-56.452-.11-46.712,42.654c-1.819,1.051-1.819,2.77,0,3.821,0,0,19.408,11.2,19.5,11.243l-2.963,1.066h4.757a9.037,9.037,0,0,0,4.562-1.2Z" transform="translate(-1911.65 -678.62)"/></g><g transform="translate(639.318 700.723)"><g transform="translate(18.106 100.524)"><path class="b" d="M1833.866,751.989a7.353,7.353,0,0,1,6.618,0l37.274,21.52c1.821,1.054,1.821,2.77,0,3.821l-19.235,11.109a7.353,7.353,0,0,1-6.618,0l-37.276-21.523c-1.821-1.051-1.821-2.767,0-3.821Z" transform="translate(-1813.263 -751.203)"/><path class="c" d="M1814.649,809.836l37.276,21.523a7.353,7.353,0,0,0,6.618,0l19.234-11.109a2.359,2.359,0,0,0,1.359-1.829s0,2.931,0,2.931a2.319,2.319,0,0,1-1.364,1.912l-19.234,11.109a7.338,7.338,0,0,1-6.618,0l-37.276-21.52a2.267,2.267,0,0,1-1.357-1.99V808.01A2.351,2.351,0,0,0,1814.649,809.836Z" transform="translate(-1813.283 -794.122)"/></g><path class="d" d="M1926.506,800.132l-.325,0h-17.21a2.431,2.431,0,0,0,1.347,1.711l20.537,11.857-.147.318-3.537,2.041h19.843l3.535-2.041Z" transform="translate(-1867.467 -687.645)"/><g transform="translate(35.658 97.059)"><path class="e" d="M1887.72,748.672a31.768,31.768,0,0,0,1.5-10.114l2.648-1.528c0,.677,0,1.706-.091,3l21.491,12.407a30.266,30.266,0,0,1-4.161,15.942L1885.06,754.5Z" transform="translate(-1885.06 -737.03)"/><path class="f" d="M1902.08,738.558l24.048,13.886,2.645-1.528-24.046-13.886Z" transform="translate(-1897.919 -737.03)"/><path class="g" d="M1983.43,811.289a30.266,30.266,0,0,0,4.161-15.942l2.645-1.528a35.509,35.509,0,0,1-3.271,15.428Z" transform="translate(-1959.382 -779.937)"/><path class="h" d="M1995.02,818.32l2.843-1.643a35.375,35.375,0,0,0,.922-5.117l-2.674,1.545A30.4,30.4,0,0,1,1995.02,818.32Z" transform="translate(-1968.139 -793.34)"/></g><g transform="translate(0 0)"><path class="c" d="M1739.21,350.821c0-2.1,1.489-2.96,3.308-1.909l89.154,51.472a7.34,7.34,0,0,1,3.308,5.73v59.757l-95.767-55.291Z" transform="translate(-1739.208 -346.395)"/><path class="i" d="M1750.207,340.451l89.152,51.472a7.34,7.34,0,0,1,3.308,5.73v59.757l-3.589,2.071V399.725a7.34,7.34,0,0,0-3.308-5.73l-89.149-51.472a2.55,2.55,0,0,0-1.98-.372l2.87-1.633A2.1,2.1,0,0,1,1750.207,340.451Z" transform="translate(-1743.31 -340.005)"/><path class="j" d="M1834.969,657.843v12.081c0,2.1-1.489,2.961-3.308,1.909l-89.154-51.472a7.34,7.34,0,0,1-3.308-5.73V602.55Z" transform="translate(-1739.2 -538.367)"/><path class="g" d="M2128.383,834.412V822.331l3.589-2.071v12.082a2.314,2.314,0,0,1-.983,2.141l-3.439,1.973A2.429,2.429,0,0,0,2128.383,834.412Z" transform="translate(-2032.612 -702.854)"/><path class="k" d="M1752.74,425.687l89.152,51.472V417.4L1752.74,365.93Z" transform="translate(-1749.43 -359.592)"/></g></g><g transform="translate(646.591 715.589)"><g transform="translate(1.398 1.808)"><path class="l" d="M1774.67,408.21l27.982,16.154v23.782l-27.982-16.154Z" transform="translate(-1774.67 -408.21)"/><path class="m" d="M1783.36,428.38c0-1.53,1.073-2.149,2.4-1.384a5.3,5.3,0,0,1,2.4,4.153c0,1.528-1.073,2.149-2.4,1.384A5.3,5.3,0,0,1,1783.36,428.38Z" transform="translate(-1781.235 -422.156)"/><path class="n" d="M1793.479,461.7l-7.879,12.04,17.844,10.3-7.879-21.137C1795.112,461.692,1793.929,461.01,1793.479,461.7Z" transform="translate(-1782.928 -448.416)"/><path class="n" d="M1845.4,523.722l-4.606-12.355c-.452-1.21-1.633-1.895-2.085-1.205L1834.1,517.2Z" transform="translate(-1819.571 -485.03)"/></g><g transform="translate(0)"><path class="o" d="M1768.95,401.814c0-.892.626-1.254,1.4-.807a3.089,3.089,0,0,1,1.4,2.423c0,.892-.626,1.254-1.4.807A3.089,3.089,0,0,1,1768.95,401.814Z" transform="translate(-1768.95 -400.815)"/><path class="o" d="M1883.41,467.9c0-.892.626-1.254,1.4-.807a3.089,3.089,0,0,1,1.4,2.423c0,.892-.626,1.254-1.4.807A3.093,3.093,0,0,1,1883.41,467.9Z" transform="translate(-1855.428 -450.748)"/><path class="o" d="M1768.95,499.094c0-.892.581-1.228,1.4-.807a2.943,2.943,0,0,1,1.4,2.423c0,.892-.626,1.254-1.4.807A3.089,3.089,0,0,1,1768.95,499.094Z" transform="translate(-1768.95 -474.314)"/><path class="o" d="M1883.41,565.184c0-.892.626-1.254,1.4-.807a3.089,3.089,0,0,1,1.4,2.423c0,.892-.626,1.254-1.4.807A3.093,3.093,0,0,1,1883.41,565.184Z" transform="translate(-1855.428 -524.247)"/><g transform="translate(1.154 3.424)"><rect class="p" width="0.489" height="20.552"/></g><g transform="translate(2.672 26.196)"><rect class="p" width="0.489" height="29.079" transform="matrix(0.5, -0.866, 0.866, 0.5, 0, 0.423)"/></g><g transform="translate(29.135 19.578)"><rect class="p" width="0.489" height="20.552"/></g><g transform="translate(2.673 2.415)"><rect class="p" width="0.489" height="29.079" transform="matrix(0.5, -0.866, 0.866, 0.5, 0, 0.423)"/></g></g><g transform="translate(47.644 48.253)"><path class="q" d="M1963.84,599.194c0-.892.626-1.254,1.4-.807a3.089,3.089,0,0,1,1.4,2.423c0,.892-.626,1.254-1.4.807A3.089,3.089,0,0,1,1963.84,599.194Z" transform="translate(-1963.84 -598.195)"/><path class="q" d="M2078.3,665.284c0-.892.626-1.254,1.4-.807a3.089,3.089,0,0,1,1.4,2.423c0,.892-.626,1.254-1.4.807A3.092,3.092,0,0,1,2078.3,665.284Z" transform="translate(-2050.318 -648.128)"/><path class="q" d="M1963.84,696.484c0-.892.626-1.254,1.4-.807a3.089,3.089,0,0,1,1.4,2.423c0,.892-.626,1.254-1.4.807A3.1,3.1,0,0,1,1963.84,696.484Z" transform="translate(-1963.84 -671.701)"/><path class="q" d="M2078.3,762.564c0-.892.626-1.254,1.4-.807a3.093,3.093,0,0,1,1.4,2.423c0,.892-.626,1.254-1.4.807A3.092,3.092,0,0,1,2078.3,762.564Z" transform="translate(-2050.318 -721.627)"/><g transform="translate(1.154 3.424)"><rect class="e" width="0.489" height="20.552"/></g><g transform="translate(2.673 26.2)"><rect class="e" width="0.489" height="29.079" transform="matrix(0.5, -0.866, 0.866, 0.5, 0, 0.423)"/></g><g transform="translate(29.135 19.578)"><rect class="e" width="0.489" height="20.552"/></g><g transform="translate(2.672 2.417)"><rect class="e" width="0.489" height="29.079" transform="matrix(0.5, -0.866, 0.866, 0.5, 0, 0.423)"/></g></g><g transform="translate(57.286 59.091)"><path class="r" d="M2015.127,649.277l.159,3.965-.4-.232a7.627,7.627,0,0,0-.315-1.645,5.119,5.119,0,0,0-.87-1.545,5.289,5.289,0,0,0-1.43-1.161l-2.014-1.164v12.622a5,5,0,0,0,.286,2.066,3.129,3.129,0,0,0,1.234,1.225l.5.286v.45l-6.068-3.5v-.45l.506.293q.906.524,1.288.11a3.242,3.242,0,0,0,.232-1.645V646.327l-1.721-.993a5.336,5.336,0,0,0-1.425-.653.993.993,0,0,0-.939.347,2.538,2.538,0,0,0-.464,1.511l-.4-.232.169-3.777Z" transform="translate(-2003.28 -642.53)"/></g><g transform="translate(1.43 22.521)"><path class="s" d="M1918.188,497.042l-4.508-2.606v-1.5l4.508,2.6Z" transform="translate(-1879.729 -492.94)"/><path class="s" d="M1981.5,533.6l-35.651-20.582v-1.5L1981.5,532.1Z" transform="translate(-1904.034 -506.978)"/><path class="g" d="M1919.973,514.751l-6.293-3.635v-1.5l6.293,3.633Z" transform="translate(-1879.729 -505.542)"/><path class="g" d="M1979.336,549.029l-33.866-19.552v-1.5l33.866,19.552Z" transform="translate(-1903.747 -519.414)"/><path class="e" d="M1919.973,531.431l-6.293-3.635v-1.5l6.293,3.633Z" transform="translate(-1879.729 -518.145)"/><path class="r" d="M1987.016,570.139l-33.866-19.552v-1.5l33.866,19.552Z" transform="translate(-1909.549 -535.363)"/><path class="e" d="M1928.292,552.919,1922,549.286v-1.5l6.292,3.633Z" transform="translate(-1886.015 -534.381)"/><path class="e" d="M1987.016,586.818l-33.866-19.552v-1.5l33.866,19.552Z" transform="translate(-1909.549 -547.966)"/><path class="r" d="M1917.75,563.508l-4.07-2.352v-1.5l4.07,2.352Z" transform="translate(-1879.729 -543.349)"/><path class="s" d="M1939.989,576.356l-4.779-2.76v-1.5l4.779,2.758Z" transform="translate(-1895.995 -552.748)"/><path class="g" d="M1781.093,531.891l-6.292-3.633v-1.5l6.292,3.633Z" transform="translate(-1774.8 -518.492)"/><path class="g" d="M1829.967,560.108l-15.7-9.062v-1.5l15.7,9.062Z" transform="translate(-1804.621 -535.711)"/><path class="s" d="M1781.093,548.571l-6.292-3.633v-1.5l6.292,3.633Z" transform="translate(-1774.8 -531.094)"/><path class="s" d="M1843.836,584.8l-29.566-17.071v-1.5l29.566,17.071Z" transform="translate(-1804.621 -548.313)"/><path class="m" d="M1779.31,564.183l-4.51-2.564v-1.5l4.51,2.564Z" transform="translate(-1774.8 -543.697)"/><path class="m" d="M1830.933,593.9l-23.953-13.861v-1.5l23.953,13.861Z" transform="translate(-1799.113 -557.614)"/><path class="e" d="M1781.093,581.931,1774.8,578.3v-1.5l6.292,3.633Z" transform="translate(-1774.8 -556.299)"/><path class="e" d="M1843.836,618.157l-29.566-17.069v-1.5l29.566,17.071Z" transform="translate(-1804.621 -573.518)"/><path class="g" d="M1781.093,598.611l-6.292-3.633v-1.5l6.292,3.633Z" transform="translate(-1774.8 -568.901)"/><path class="e" d="M1838.971,632.028l-24.7-14.26v-1.5l24.7,14.26Z" transform="translate(-1804.621 -586.12)"/></g></g></g></svg>