<svg xmlns="http://www.w3.org/2000/svg" xmlns:xlink="http://www.w3.org/1999/xlink" width="91.113" height="124.777" viewBox="0 0 91.113 124.777"><defs><style>.a{opacity:0.5;}.b{fill:url(#a);}.c{fill:#e8ecf7;}.d{fill:url(#b);}.e{fill:#fff;}.f{fill:#ff826a;}.g{fill:#dae5f5;}.h{fill:#7ab0f8;}.i{fill:#b9cbe4;}.j{fill:#ccdef6;}</style><linearGradient id="a" y1="0.5" x2="1" y2="0.5" gradientUnits="objectBoundingBox"><stop offset="0" stop-color="#c4c9e5"/><stop offset="0.424" stop-color="#daddef"/><stop offset="1" stop-color="#fff"/></linearGradient><linearGradient id="b" x1="0.058" y1="0.004" x2="1.372" y2="0.896" gradientUnits="objectBoundingBox"><stop offset="0" stop-color="#046af3"/><stop offset="0.297" stop-color="#046af3"/><stop offset="0.375" stop-color="#00449f"/><stop offset="1" stop-color="#00449f"/></linearGradient></defs><g class="a"><path class="b" d="M2170.791,1025.82h-84.65c-4.735,0-3.721,2.83-1.353,4.2l37.69,21.861c1.3.731,5.553.858,10.287.858h38.021V1025.82Z" transform="translate(-2079.678 -927.962)"/><path class="c" d="M2074.98,878a9.553,9.553,0,0,0,4.308,7.457l38.013,21.949c2.367,1.369,4.308.248,4.308-2.487V815.747a9.553,9.553,0,0,0-4.308-7.457l-38.013-21.949c-2.367-1.369-4.308-.247-4.308,2.487Z" transform="translate(-2074.98 -783.735)"/><path class="d" d="M2077.91,783.063v0a2.961,2.961,0,0,1,3.134.232l38.013,21.949a9.565,9.565,0,0,1,4.307,7.457v89.172a3.043,3.043,0,0,1-1.237,2.763l3.058-2h0a3.007,3.007,0,0,0,1.281-2.786V810.681a9.542,9.542,0,0,0-4.308-7.457l-38.013-21.949a2.941,2.941,0,0,0-3.138-.228l0,0Zm44.185,121.6h0Z" transform="translate(-2076.74 -780.693)"/><path class="e" d="M2081.75,801.45V883.7l41.219,23.8V825.247Z" transform="translate(-2079.047 -793.164)"/><g transform="translate(5.168 23.739)"><g transform="translate(0 2.108)"><path class="c" d="M2122.736,892.877l-32.031-18.495a4.558,4.558,0,0,1-1.906-3.639V845.361c0-1.4.854-2.046,1.906-1.44l32.031,18.495a4.559,4.559,0,0,1,1.905,3.639v25.383C2124.641,892.836,2123.787,893.482,2122.736,892.877Z" transform="translate(-2088.8 -843.693)"/><path class="f" d="M2095.59,858.128c0-1.958,1.376-2.752,3.073-1.773a6.789,6.789,0,0,1,3.073,5.32c0,1.958-1.376,2.752-3.073,1.773A6.779,6.779,0,0,1,2095.59,858.128Z" transform="translate(-2092.866 -851.024)"/><path class="g" d="M2107.424,883.411l-10.094,15.421,22.855,13.195-10.093-27.072C2109.514,883.4,2108,882.525,2107.424,883.411Z" transform="translate(-2093.908 -867.265)"/><path class="g" d="M2149.667,938.6l-5.9-15.823c-.578-1.553-2.094-2.427-2.672-1.541l-5.9,9.014Z" transform="translate(-2116.586 -889.918)"/></g><g transform="translate(11.061)"><path class="h" d="M2116.37,839.491c0-.939.662-1.32,1.472-.851a3.253,3.253,0,0,1,1.473,2.552c0,.939-.662,1.32-1.473.851A3.265,3.265,0,0,1,2116.37,839.491Z" transform="translate(-2116.37 -838.439)"/><path class="h" d="M2129.7,847.181c0-.939.662-1.32,1.472-.851a3.253,3.253,0,0,1,1.472,2.551c0,.939-.662,1.32-1.472.851A3.253,3.253,0,0,1,2129.7,847.181Z" transform="translate(-2124.352 -843.044)"/><path class="h" d="M2143.03,854.881c0-.939.662-1.32,1.473-.85a3.254,3.254,0,0,1,1.472,2.552c0,.939-.662,1.32-1.472.851A3.264,3.264,0,0,1,2143.03,854.881Z" transform="translate(-2132.334 -847.655)"/></g><g transform="translate(0 36.765)"><path class="h" d="M2093.622,934.465l-4.822-2.784v-1.6l4.822,2.784Z" transform="translate(-2088.8 -930.08)"/><path class="h" d="M2137.193,959.619l-27.433-15.839v-1.6l27.433,15.839Z" transform="translate(-2101.351 -937.326)"/><path class="f" d="M2095.528,946.43l-6.728-3.879v-1.6l6.728,3.884Z" transform="translate(-2088.8 -936.589)"/><path class="i" d="M2135.037,969.24,2109.51,954.5v-1.6l25.527,14.739Z" transform="translate(-2101.202 -943.745)"/><path class="j" d="M2095.528,957.294l-6.728-3.883v-1.6l6.728,3.883Z" transform="translate(-2088.8 -943.092)"/><path class="f" d="M2140.037,982.99l-25.527-14.739v-1.6l25.527,14.739Z" transform="translate(-2104.196 -951.979)"/><path class="j" d="M2100.954,971.284l-6.724-3.883v-1.6l6.724,3.883Z" transform="translate(-2092.052 -951.47)"/><path class="j" d="M2140.037,993.85l-25.527-14.739v-1.6l25.527,14.739Z" transform="translate(-2104.196 -958.482)"/><path class="f" d="M2093.153,977.652l-4.353-2.515v-1.6l4.353,2.511Z" transform="translate(-2088.8 -956.105)"/><path class="h" d="M2130.732,999.338l-27.9-16.107v-1.6l27.9,16.111Z" transform="translate(-2097.201 -960.949)"/><path class="i" d="M2095.528,989.884,2088.8,986v-1.6l6.728,3.883Z" transform="translate(-2088.8 -962.608)"/><path class="i" d="M2120.616,1004.367l-6.106-3.526v-1.6l6.106,3.526Z" transform="translate(-2104.196 -971.494)"/><path class="h" d="M2095.528,1000.744l-6.728-3.883v-1.6l6.728,3.883Z" transform="translate(-2088.8 -969.111)"/><path class="h" d="M2140.037,1026.44l-25.527-14.74v-1.6l25.527,14.739Z" transform="translate(-2104.196 -977.997)"/></g></g><path class="i" d="M2128.736,1040.527c-1.7-.982-3.086-.188-3.086,1.781a6.81,6.81,0,0,0,3.086,5.341c1.7.982,3.086.188,3.086-1.78A6.83,6.83,0,0,0,2128.736,1040.527Zm0,6.08a4.82,4.82,0,0,1-2.184-3.777c0-1.389.978-1.956,2.184-1.257a4.816,4.816,0,0,1,2.18,3.776C2130.916,1046.738,2129.938,1047.3,2128.736,1046.607Z" transform="translate(-2105.422 -936.545)"/><path class="i" d="M2129.925,819.922l-13.666-7.892v.9l13.666,7.892Z" transform="translate(-2099.78 -799.52)"/></g></svg>